<svg width="35" height="35" viewBox="0 0 35 35" fill="none" xmlns="http://www.w3.org/2000/svg">
<g clip-path="url(#clip0_21_210)">
<path d="M20.4167 2.91675H8.75004C7.14587 2.91675 5.84796 4.22925 5.84796 5.83341L5.83337 29.1667C5.83337 30.7709 7.13129 32.0834 8.73546 32.0834H26.25C27.8542 32.0834 29.1667 30.7709 29.1667 29.1667V11.6667L20.4167 2.91675ZM21.875 17.5001H16.0417V18.9584H20.4167C21.2188 18.9584 21.875 19.6147 21.875 20.4167V24.7917C21.875 25.5938 21.2188 26.2501 20.4167 26.2501H18.9584V27.7084H16.0417V26.2501H13.125V23.3334H18.9584V21.8751H14.5834C13.7813 21.8751 13.125 21.2188 13.125 20.4167V16.0417C13.125 15.2397 13.7813 14.5834 14.5834 14.5834H16.0417V13.1251H18.9584V14.5834H21.875V17.5001ZM18.9584 11.6667V5.10425L25.5209 11.6667H18.9584Z" fill="white"/>
</g>
<defs>
<clipPath id="clip0_21_210">
<rect width="35" height="35" fill="white"/>
</clipPath>
</defs>
</svg>
