<svg width="28" height="28" viewBox="0 0 28 28" fill="none" xmlns="http://www.w3.org/2000/svg">
<g clip-path="url(#clip0_12_244)">
<path d="M23.1151 8.8549L21.9651 10.0049C24.0351 12.0749 24.0351 15.2949 21.9651 17.4799L23.1151 18.6299C25.9901 15.9849 25.9901 11.6149 23.1151 8.8549ZM20.7001 11.2699L19.5501 12.4199C20.1251 13.2249 20.1251 14.2599 19.5501 15.0649L20.7001 16.2149C22.0801 14.8349 22.0801 12.7649 20.7001 11.2699ZM16.1001 1.1499H4.60005C3.33505 1.1499 2.30005 2.1849 2.30005 3.4499V24.1499C2.30005 25.4149 3.33505 26.4499 4.60005 26.4499H16.1001C17.3651 26.4499 18.4001 25.4149 18.4001 24.1499V3.4499C18.4001 2.1849 17.3651 1.1499 16.1001 1.1499ZM16.1001 22.9999H4.60005V4.5999H16.1001V22.9999Z" fill="white"/>
</g>
<defs>
<clipPath id="clip0_12_244">
<rect width="27.6" height="27.6" fill="white"/>
</clipPath>
</defs>
</svg>
