<svg width="35" height="35" viewBox="0 0 35 35" fill="none" xmlns="http://www.w3.org/2000/svg">
<g clip-path="url(#clip0_21_155)">
<path d="M13.125 21.875C9.23129 21.875 1.45837 23.8292 1.45837 27.7083V30.625H24.7917V27.7083C24.7917 23.8292 17.0188 21.875 13.125 21.875Z" fill="white"/>
<path d="M32.2293 9.975C32.2438 9.81458 32.2584 9.65417 32.2584 9.47917C32.2584 9.30417 32.2438 9.14375 32.2147 8.98333L33.2938 8.1375C33.3959 8.06458 33.4105 7.91875 33.3522 7.81667L32.3313 6.05208C32.273 5.93542 32.1272 5.90625 32.0251 5.93542L30.7709 6.44583C30.5084 6.24167 30.2168 6.08125 29.9105 5.95L29.7209 4.59375C29.6918 4.4625 29.5897 4.375 29.4584 4.375H27.4168C27.2855 4.375 27.1834 4.4625 27.1688 4.59375L26.9793 5.95C26.673 6.08125 26.3813 6.25625 26.1188 6.44583L24.8501 5.93542C24.7334 5.89167 24.6022 5.93542 24.5438 6.05208L23.523 7.81667C23.4647 7.93333 23.4793 8.06458 23.5813 8.1375L24.6605 8.98333C24.6313 9.14375 24.6168 9.31875 24.6168 9.47917C24.6168 9.63958 24.6313 9.81458 24.6605 9.975L23.5813 10.8208C23.4793 10.8937 23.4647 11.0396 23.523 11.1417L24.5438 12.9063C24.6022 13.0229 24.748 13.0521 24.8501 13.0229L26.1188 12.5125C26.3813 12.7167 26.673 12.8771 26.9793 13.0083L27.1688 14.3646C27.1834 14.4958 27.2855 14.5833 27.4168 14.5833H29.4584C29.5897 14.5833 29.6918 14.4958 29.7063 14.3646L29.8959 13.0083C30.2022 12.8771 30.4938 12.7021 30.7563 12.5125L32.0251 13.0229C32.1418 13.0667 32.273 13.0229 32.3313 12.9063L33.3522 11.1417C33.4105 11.025 33.3959 10.8937 33.2938 10.8208L32.2293 9.975ZM28.4376 11.3021C27.4313 11.3021 26.6147 10.4854 26.6147 9.47917C26.6147 8.47292 27.4313 7.65625 28.4376 7.65625C29.4438 7.65625 30.2605 8.47292 30.2605 9.47917C30.2605 10.4854 29.4438 11.3021 28.4376 11.3021Z" fill="white"/>
<path d="M29.05 17.0334L28.3208 15.7646C28.2771 15.6771 28.175 15.648 28.1021 15.6771L27.1979 16.0417C27.0083 15.8959 26.8042 15.7792 26.5854 15.6917L26.4542 14.7292C26.425 14.6417 26.3375 14.5834 26.25 14.5834H24.7917C24.7042 14.5834 24.6312 14.6417 24.6167 14.7438L24.4854 15.7063C24.2667 15.7938 24.0625 15.925 23.8729 16.0563L22.9687 15.6917C22.8812 15.6625 22.7937 15.6917 22.75 15.7792L22.0208 17.048C21.9771 17.1355 21.9917 17.223 22.0646 17.2813L22.8375 17.8792C22.8229 17.9959 22.8083 18.1125 22.8083 18.2292C22.8083 18.3459 22.8229 18.4771 22.8375 18.5792L22.0646 19.1771C21.9917 19.2355 21.9771 19.3375 22.0208 19.4105L22.75 20.6792C22.7937 20.7667 22.8958 20.7959 22.9687 20.7667L23.8729 20.4021C24.0625 20.548 24.2667 20.6646 24.4854 20.7521L24.6167 21.7146C24.6312 21.8167 24.7042 21.875 24.7917 21.875H26.25C26.3375 21.875 26.425 21.8167 26.425 21.7146L26.5562 20.7521C26.775 20.6646 26.9792 20.5334 27.1687 20.4021L28.0729 20.7667C28.1604 20.7959 28.2479 20.7667 28.2917 20.6792L29.0208 19.4105C29.0646 19.323 29.05 19.2355 28.9771 19.1771L28.2187 18.5792C28.2333 18.4625 28.2479 18.3459 28.2479 18.2292C28.2479 18.1125 28.2333 17.9813 28.2187 17.8792L28.9917 17.2813C29.0646 17.223 29.0792 17.1209 29.05 17.0334ZM25.5208 19.4396C24.85 19.4396 24.3104 18.8855 24.3104 18.2292C24.3104 17.5584 24.8646 17.0188 25.5208 17.0188C26.1771 17.0188 26.7312 17.573 26.7312 18.2292C26.7312 18.9 26.1917 19.4396 25.5208 19.4396Z" fill="white"/>
<path d="M6.91258 13.125H19.3522C19.7459 13.125 20.0667 12.8042 20.0667 12.4105V12.3813C20.0667 11.9875 19.7459 11.6667 19.3522 11.6667H18.9584C18.9584 9.50837 17.7772 7.65629 16.0417 6.63546V8.02087C16.0417 8.42921 15.7209 8.75004 15.3126 8.75004C14.9042 8.75004 14.5834 8.42921 14.5834 8.02087V6.03754C14.1167 5.92087 13.6355 5.83337 13.1251 5.83337C12.6147 5.83337 12.1334 5.92087 11.6667 6.03754V8.02087C11.6667 8.42921 11.3459 8.75004 10.9376 8.75004C10.5292 8.75004 10.2084 8.42921 10.2084 8.02087V6.63546C8.473 7.65629 7.29175 9.50837 7.29175 11.6667H6.91258C6.51883 11.6667 6.198 11.9875 6.198 12.3813V12.425C6.198 12.8042 6.51883 13.125 6.91258 13.125Z" fill="white"/>
<path d="M13.125 18.9584C15.8375 18.9584 18.0979 17.0917 18.7542 14.5834H7.49585C8.1521 17.0917 10.4125 18.9584 13.125 18.9584Z" fill="white"/>
</g>
<defs>
<clipPath id="clip0_21_155">
<rect width="35" height="35" fill="white"/>
</clipPath>
</defs>
</svg>
