<svg width="28" height="28" viewBox="0 0 28 28" fill="none" xmlns="http://www.w3.org/2000/svg">
<g clip-path="url(#clip0_21_60)">
<path d="M13.7885 5.75002V1.15002L8.0385 6.90002L13.7885 12.65V8.05002C17.595 8.05002 20.6885 11.1435 20.6885 14.95C20.6885 18.7565 17.595 21.85 13.7885 21.85C9.982 21.85 6.8885 18.7565 6.8885 14.95H4.5885C4.5885 20.033 8.7055 24.15 13.7885 24.15C18.8715 24.15 22.9885 20.033 22.9885 14.95C22.9885 9.86703 18.8715 5.75002 13.7885 5.75002Z" fill="white"/>
<path d="M12.5235 18.4H11.546V14.651L10.3845 15.0075V14.214L12.42 13.4895H12.5235V18.4Z" fill="white"/>
<path d="M17.4456 16.376C17.4456 16.744 17.4111 17.066 17.3306 17.319C17.2501 17.572 17.1351 17.802 16.9971 17.9745C16.8591 18.147 16.6751 18.2735 16.4796 18.354C16.2841 18.4345 16.0541 18.469 15.8011 18.469C15.5481 18.469 15.3296 18.4345 15.1226 18.354C14.9156 18.2735 14.7431 18.147 14.5936 17.9745C14.4441 17.802 14.3291 17.5835 14.2486 17.319C14.1681 17.0545 14.1221 16.744 14.1221 16.376V15.525C14.1221 15.157 14.1566 14.835 14.2371 14.582C14.3176 14.329 14.4326 14.099 14.5706 13.9265C14.7086 13.754 14.8926 13.6275 15.0881 13.547C15.2836 13.4665 15.5136 13.432 15.7666 13.432C16.0196 13.432 16.2381 13.4665 16.4451 13.547C16.6521 13.6275 16.8246 13.754 16.9741 13.9265C17.1236 14.099 17.2386 14.3175 17.3191 14.582C17.3996 14.8465 17.4456 15.157 17.4456 15.525V16.376ZM16.4681 15.387C16.4681 15.1685 16.4566 14.9845 16.4221 14.835C16.3876 14.6855 16.3416 14.5705 16.2841 14.4785C16.2266 14.3865 16.1576 14.3175 16.0656 14.283C15.9736 14.2485 15.8816 14.2255 15.7781 14.2255C15.6746 14.2255 15.5711 14.2485 15.4906 14.283C15.4101 14.3175 15.3296 14.3865 15.2721 14.4785C15.2146 14.5705 15.1686 14.6855 15.1341 14.835C15.0996 14.9845 15.0881 15.1685 15.0881 15.387V16.5025C15.0881 16.721 15.0996 16.905 15.1341 17.0545C15.1686 17.204 15.2146 17.3305 15.2721 17.4225C15.3296 17.5145 15.3986 17.5835 15.4906 17.618C15.5826 17.6525 15.6746 17.6755 15.7781 17.6755C15.8816 17.6755 15.9851 17.6525 16.0656 17.618C16.1461 17.5835 16.2266 17.5145 16.2841 17.4225C16.3416 17.3305 16.3876 17.204 16.4106 17.0545C16.4336 16.905 16.4566 16.721 16.4566 16.5025V15.387H16.4681Z" fill="white"/>
</g>
<defs>
<clipPath id="clip0_21_60">
<rect width="27.6" height="27.6" fill="white"/>
</clipPath>
</defs>
</svg>
