<svg width="28" height="28" viewBox="0 0 28 28" fill="none" xmlns="http://www.w3.org/2000/svg">
<g clip-path="url(#clip0_21_73)">
<path d="M22.011 14.881C22.057 14.536 22.08 14.1795 22.08 13.8C22.08 13.432 22.057 13.064 21.9995 12.719L24.334 10.902C24.541 10.741 24.5985 10.4305 24.472 10.2005L22.264 6.38251C22.126 6.12951 21.8385 6.04901 21.5855 6.12951L18.837 7.23351C18.262 6.79651 17.6525 6.42851 16.974 6.15251L16.56 3.23151C16.514 2.95551 16.284 2.76001 16.008 2.76001H11.592C11.316 2.76001 11.0975 2.95551 11.0515 3.23151L10.6375 6.15251C9.95898 6.42851 9.33798 6.80801 8.77448 7.23351L6.02598 6.12951C5.77298 6.03751 5.48548 6.12951 5.34748 6.38251L3.15098 10.2005C3.01298 10.442 3.05898 10.741 3.28898 10.902L5.62348 12.719C5.56598 13.064 5.51998 13.4435 5.51998 13.8C5.51998 14.1565 5.54298 14.536 5.60048 14.881L3.26598 16.698C3.05898 16.859 3.00148 17.1695 3.12798 17.3995L5.33598 21.2175C5.47398 21.4705 5.76148 21.551 6.01448 21.4705L8.76298 20.3665C9.33798 20.8035 9.94748 21.1715 10.626 21.4475L11.04 24.3685C11.0975 24.6445 11.316 24.84 11.592 24.84H16.008C16.284 24.84 16.514 24.6445 16.5485 24.3685L16.9625 21.4475C17.641 21.1715 18.262 20.8035 18.8255 20.3665L21.574 21.4705C21.827 21.5625 22.1145 21.4705 22.2525 21.2175L24.4605 17.3995C24.5985 17.1465 24.541 16.859 24.3225 16.698L22.011 14.881ZM13.8 17.94C11.523 17.94 9.65998 16.077 9.65998 13.8C9.65998 11.523 11.523 9.66001 13.8 9.66001C16.077 9.66001 17.94 11.523 17.94 13.8C17.94 16.077 16.077 17.94 13.8 17.94Z" fill="white"/>
</g>
<defs>
<clipPath id="clip0_21_73">
<rect width="27.6" height="27.6" fill="white"/>
</clipPath>
</defs>
</svg>
